<mxfile host="65bd71144e">
    <diagram id="hMbrDPFieWOL0T-V6AX8" name="Networking">
        <mxGraphModel dx="1123" dy="860" grid="1" gridSize="10" guides="1" tooltips="1" connect="1" arrows="1" fold="1" page="1" pageScale="1" pageWidth="827" pageHeight="1169" math="0" shadow="0">
            <root>
                <mxCell id="0"/>
                <mxCell id="1" parent="0"/>
                <mxCell id="QCd1m7O_G2qFwtDelTw3-35" value="Discord" style="rounded=1;whiteSpace=wrap;html=1;fillColor=#eeeeee;strokeColor=#36393d;fontColor=#333333;" parent="1" vertex="1">
                    <mxGeometry x="320" y="50" width="120" height="60" as="geometry"/>
                </mxCell>
                <mxCell id="QCd1m7O_G2qFwtDelTw3-36" value="Jeu" style="rounded=1;whiteSpace=wrap;html=1;fillColor=#cdeb8b;strokeColor=#36393d;fontColor=#333333;" parent="1" vertex="1">
                    <mxGeometry x="540" y="50" width="120" height="60" as="geometry"/>
                </mxCell>
                <mxCell id="QCd1m7O_G2qFwtDelTw3-40" value="" style="edgeStyle=orthogonalEdgeStyle;rounded=0;orthogonalLoop=1;jettySize=auto;html=1;endArrow=classic;endFill=1;fontColor=#333333;" parent="1" source="QCd1m7O_G2qFwtDelTw3-37" target="QCd1m7O_G2qFwtDelTw3-39" edge="1">
                    <mxGeometry relative="1" as="geometry"/>
                </mxCell>
                <mxCell id="kIeUtj9nH9YkvTLyxv19-21" style="edgeStyle=orthogonalEdgeStyle;rounded=0;orthogonalLoop=1;jettySize=auto;html=1;entryX=1;entryY=0.5;entryDx=0;entryDy=0;fontColor=#333333;" parent="1" source="QCd1m7O_G2qFwtDelTw3-37" target="kIeUtj9nH9YkvTLyxv19-20" edge="1">
                    <mxGeometry relative="1" as="geometry"/>
                </mxCell>
                <mxCell id="QCd1m7O_G2qFwtDelTw3-37" value="Démarage" style="ellipse;whiteSpace=wrap;html=1;fillColor=#dae8fc;strokeColor=#6c8ebf;fontColor=#333333;" parent="1" vertex="1">
                    <mxGeometry x="540" y="130" width="120" height="80" as="geometry"/>
                </mxCell>
                <mxCell id="QCd1m7O_G2qFwtDelTw3-39" value="Attente de la réponse du client discord" style="rounded=0;whiteSpace=wrap;html=1;fillColor=#d5e8d4;strokeColor=#82b366;fontColor=#333333;" parent="1" vertex="1">
                    <mxGeometry x="540" y="410" width="120" height="60" as="geometry"/>
                </mxCell>
                <mxCell id="kIeUtj9nH9YkvTLyxv19-23" style="edgeStyle=orthogonalEdgeStyle;rounded=0;orthogonalLoop=1;jettySize=auto;html=1;entryX=0.5;entryY=0;entryDx=0;entryDy=0;fontColor=#333333;" parent="1" source="QCd1m7O_G2qFwtDelTw3-41" target="QCd1m7O_G2qFwtDelTw3-44" edge="1">
                    <mxGeometry relative="1" as="geometry"/>
                </mxCell>
                <mxCell id="QCd1m7O_G2qFwtDelTw3-41" value="Connexion d'un nouveau programme au SDK" style="rounded=0;whiteSpace=wrap;html=1;fillColor=#e1d5e7;strokeColor=#9673a6;fontColor=#333333;" parent="1" vertex="1">
                    <mxGeometry x="320" y="240" width="120" height="60" as="geometry"/>
                </mxCell>
                <mxCell id="QCd1m7O_G2qFwtDelTw3-47" style="edgeStyle=orthogonalEdgeStyle;rounded=0;orthogonalLoop=1;jettySize=auto;html=1;exitX=1;exitY=0.5;exitDx=0;exitDy=0;entryX=0;entryY=0.5;entryDx=0;entryDy=0;endArrow=classic;endFill=1;fontColor=#333333;" parent="1" source="QCd1m7O_G2qFwtDelTw3-44" target="QCd1m7O_G2qFwtDelTw3-39" edge="1">
                    <mxGeometry relative="1" as="geometry"/>
                </mxCell>
                <mxCell id="QCd1m7O_G2qFwtDelTw3-44" value="Envois des informations de l'utilisateur, comme le nom de l'utilisateur et la route utilisé par discord pour le multijoueur" style="rounded=0;whiteSpace=wrap;html=1;fillColor=#e1d5e7;strokeColor=#9673a6;fontColor=#333333;" parent="1" vertex="1">
                    <mxGeometry x="320" y="380" width="120" height="120" as="geometry"/>
                </mxCell>
                <mxCell id="QCd1m7O_G2qFwtDelTw3-48" value="Affichage d'un écran de connexion" style="rounded=0;whiteSpace=wrap;html=1;fillColor=#d5e8d4;strokeColor=#82b366;fontColor=#333333;" parent="1" vertex="1">
                    <mxGeometry x="540" y="230" width="120" height="60" as="geometry"/>
                </mxCell>
                <mxCell id="QCd1m7O_G2qFwtDelTw3-52" value="" style="edgeStyle=orthogonalEdgeStyle;rounded=0;orthogonalLoop=1;jettySize=auto;html=1;endArrow=classic;endFill=1;fontColor=#333333;" parent="1" source="QCd1m7O_G2qFwtDelTw3-49" target="QCd1m7O_G2qFwtDelTw3-51" edge="1">
                    <mxGeometry relative="1" as="geometry"/>
                </mxCell>
                <mxCell id="QCd1m7O_G2qFwtDelTw3-49" value="Mise à jour du joueur&lt;br&gt;et lancement du gameplay" style="rounded=0;whiteSpace=wrap;html=1;fillColor=#d5e8d4;strokeColor=#82b366;fontColor=#333333;" parent="1" vertex="1">
                    <mxGeometry x="540" y="570" width="120" height="60" as="geometry"/>
                </mxCell>
                <mxCell id="QCd1m7O_G2qFwtDelTw3-54" style="edgeStyle=orthogonalEdgeStyle;rounded=0;orthogonalLoop=1;jettySize=auto;html=1;entryX=1;entryY=0.5;entryDx=0;entryDy=0;endArrow=classic;endFill=1;fontColor=#333333;" parent="1" source="QCd1m7O_G2qFwtDelTw3-51" target="QCd1m7O_G2qFwtDelTw3-53" edge="1">
                    <mxGeometry relative="1" as="geometry"/>
                </mxCell>
                <mxCell id="QCd1m7O_G2qFwtDelTw3-65" style="edgeStyle=orthogonalEdgeStyle;rounded=0;orthogonalLoop=1;jettySize=auto;html=1;entryX=0.5;entryY=0;entryDx=0;entryDy=0;endArrow=classic;endFill=1;fontColor=#333333;" parent="1" source="QCd1m7O_G2qFwtDelTw3-51" target="QCd1m7O_G2qFwtDelTw3-64" edge="1">
                    <mxGeometry relative="1" as="geometry"/>
                </mxCell>
                <mxCell id="QCd1m7O_G2qFwtDelTw3-51" value="Mise à jour du statut discord" style="rounded=0;whiteSpace=wrap;html=1;fillColor=#d5e8d4;strokeColor=#82b366;fontColor=#333333;" parent="1" vertex="1">
                    <mxGeometry x="540" y="670" width="120" height="60" as="geometry"/>
                </mxCell>
                <mxCell id="QCd1m7O_G2qFwtDelTw3-53" value="Affichage du statut sur le profil de l'utilisateur" style="rounded=0;whiteSpace=wrap;html=1;fillColor=#e1d5e7;strokeColor=#9673a6;fontColor=#333333;" parent="1" vertex="1">
                    <mxGeometry x="320" y="670" width="120" height="60" as="geometry"/>
                </mxCell>
                <mxCell id="QCd1m7O_G2qFwtDelTw3-57" value="" style="endArrow=classic;html=1;rounded=0;exitX=1;exitY=0.5;exitDx=0;exitDy=0;edgeStyle=orthogonalEdgeStyle;fontColor=#333333;" parent="1" edge="1">
                    <mxGeometry relative="1" as="geometry">
                        <mxPoint x="660" y="520" as="sourcePoint"/>
                        <mxPoint x="600" y="400" as="targetPoint"/>
                        <Array as="points">
                            <mxPoint x="730" y="520"/>
                            <mxPoint x="730" y="400"/>
                        </Array>
                    </mxGeometry>
                </mxCell>
                <mxCell id="QCd1m7O_G2qFwtDelTw3-58" value="Non" style="edgeLabel;resizable=0;html=1;align=center;verticalAlign=middle;fontColor=#999999;labelBackgroundColor=none;" parent="QCd1m7O_G2qFwtDelTw3-57" connectable="0" vertex="1">
                    <mxGeometry relative="1" as="geometry">
                        <mxPoint x="-40" y="90" as="offset"/>
                    </mxGeometry>
                </mxCell>
                <mxCell id="QCd1m7O_G2qFwtDelTw3-60" value="" style="endArrow=classic;html=1;rounded=0;exitX=0.5;exitY=1;exitDx=0;exitDy=0;entryX=0.5;entryY=0;entryDx=0;entryDy=0;fontColor=#333333;" parent="1" source="QCd1m7O_G2qFwtDelTw3-39" edge="1">
                    <mxGeometry width="50" height="50" relative="1" as="geometry">
                        <mxPoint x="390" y="560" as="sourcePoint"/>
                        <mxPoint x="600" y="500" as="targetPoint"/>
                    </mxGeometry>
                </mxCell>
                <mxCell id="QCd1m7O_G2qFwtDelTw3-61" value="" style="endArrow=classic;html=1;rounded=0;exitX=0.5;exitY=1;exitDx=0;exitDy=0;entryX=0.5;entryY=0;entryDx=0;entryDy=0;fontColor=#333333;" parent="1" target="QCd1m7O_G2qFwtDelTw3-49" edge="1">
                    <mxGeometry relative="1" as="geometry">
                        <mxPoint x="600" y="540" as="sourcePoint"/>
                        <mxPoint x="710" y="540" as="targetPoint"/>
                    </mxGeometry>
                </mxCell>
                <mxCell id="QCd1m7O_G2qFwtDelTw3-62" value="Oui" style="edgeLabel;resizable=0;html=1;align=center;verticalAlign=middle;fontColor=#999999;labelBackgroundColor=none;" parent="QCd1m7O_G2qFwtDelTw3-61" connectable="0" vertex="1">
                    <mxGeometry relative="1" as="geometry"/>
                </mxCell>
                <mxCell id="QCd1m7O_G2qFwtDelTw3-66" style="edgeStyle=orthogonalEdgeStyle;rounded=0;orthogonalLoop=1;jettySize=auto;html=1;endArrow=classic;endFill=1;fontColor=#333333;" parent="1" source="QCd1m7O_G2qFwtDelTw3-64" edge="1">
                    <mxGeometry relative="1" as="geometry">
                        <mxPoint x="600" y="740" as="targetPoint"/>
                        <Array as="points">
                            <mxPoint x="600" y="860"/>
                            <mxPoint x="740" y="860"/>
                            <mxPoint x="740" y="740"/>
                        </Array>
                    </mxGeometry>
                </mxCell>
                <mxCell id="QCd1m7O_G2qFwtDelTw3-64" value="Traitement du gameplay (touches de déplacement...)" style="rounded=0;whiteSpace=wrap;html=1;fillColor=#d5e8d4;strokeColor=#82b366;fontColor=#333333;" parent="1" vertex="1">
                    <mxGeometry x="540" y="770" width="120" height="60" as="geometry"/>
                </mxCell>
                <mxCell id="QCd1m7O_G2qFwtDelTw3-73" style="edgeStyle=orthogonalEdgeStyle;rounded=0;orthogonalLoop=1;jettySize=auto;html=1;entryX=0;entryY=0.5;entryDx=0;entryDy=0;endArrow=classic;endFill=1;fontColor=#333333;" parent="1" target="QCd1m7O_G2qFwtDelTw3-69" edge="1">
                    <mxGeometry relative="1" as="geometry">
                        <mxPoint x="440" y="820" as="sourcePoint"/>
                    </mxGeometry>
                </mxCell>
                <mxCell id="QCd1m7O_G2qFwtDelTw3-72" style="edgeStyle=orthogonalEdgeStyle;rounded=0;orthogonalLoop=1;jettySize=auto;html=1;entryX=1;entryY=0.5;entryDx=0;entryDy=0;endArrow=classic;endFill=1;exitX=0.5;exitY=1;exitDx=0;exitDy=0;fontColor=#333333;" parent="1" source="QCd1m7O_G2qFwtDelTw3-69" target="QCd1m7O_G2qFwtDelTw3-71" edge="1">
                    <mxGeometry relative="1" as="geometry"/>
                </mxCell>
                <mxCell id="QCd1m7O_G2qFwtDelTw3-69" value="Mise à jour de la route dans le client" style="rounded=0;whiteSpace=wrap;html=1;fillColor=#d5e8d4;strokeColor=#82b366;fontColor=#333333;" parent="1" vertex="1">
                    <mxGeometry x="540" y="890" width="120" height="60" as="geometry"/>
                </mxCell>
                <mxCell id="QCd1m7O_G2qFwtDelTw3-71" value="Création du lobby" style="rounded=0;whiteSpace=wrap;html=1;fillColor=#e1d5e7;strokeColor=#9673a6;fontColor=#333333;" parent="1" vertex="1">
                    <mxGeometry x="320" y="990" width="120" height="60" as="geometry"/>
                </mxCell>
                <mxCell id="QCd1m7O_G2qFwtDelTw3-77" style="edgeStyle=orthogonalEdgeStyle;rounded=0;orthogonalLoop=1;jettySize=auto;html=1;entryX=0;entryY=0.5;entryDx=0;entryDy=0;endArrow=classic;endFill=1;fontColor=#333333;" parent="1" target="QCd1m7O_G2qFwtDelTw3-75" edge="1">
                    <mxGeometry relative="1" as="geometry">
                        <mxPoint x="440" y="1110" as="sourcePoint"/>
                    </mxGeometry>
                </mxCell>
                <mxCell id="QCd1m7O_G2qFwtDelTw3-78" style="edgeStyle=orthogonalEdgeStyle;rounded=0;orthogonalLoop=1;jettySize=auto;html=1;endArrow=classic;endFill=1;entryX=1;entryY=0.5;entryDx=0;entryDy=0;fontColor=#333333;" parent="1" source="QCd1m7O_G2qFwtDelTw3-75" target="QCd1m7O_G2qFwtDelTw3-76" edge="1">
                    <mxGeometry relative="1" as="geometry">
                        <mxPoint x="600" y="1200" as="targetPoint"/>
                        <Array as="points">
                            <mxPoint x="600" y="1190"/>
                        </Array>
                    </mxGeometry>
                </mxCell>
                <mxCell id="QCd1m7O_G2qFwtDelTw3-75" value="Mise à jour des joueurs connectés" style="rounded=0;whiteSpace=wrap;html=1;fillColor=#d5e8d4;strokeColor=#82b366;fontColor=#333333;" parent="1" vertex="1">
                    <mxGeometry x="540" y="1080" width="120" height="60" as="geometry"/>
                </mxCell>
                <mxCell id="QCd1m7O_G2qFwtDelTw3-76" value="Mise à jour du statut" style="rounded=0;whiteSpace=wrap;html=1;fillColor=#e1d5e7;strokeColor=#9673a6;fontColor=#333333;" parent="1" vertex="1">
                    <mxGeometry x="320" y="1160" width="120" height="60" as="geometry"/>
                </mxCell>
                <mxCell id="QCd1m7O_G2qFwtDelTw3-82" style="edgeStyle=orthogonalEdgeStyle;rounded=0;orthogonalLoop=1;jettySize=auto;html=1;entryX=0;entryY=0.5;entryDx=0;entryDy=0;endArrow=classic;endFill=1;fontColor=#333333;" parent="1" target="QCd1m7O_G2qFwtDelTw3-81" edge="1">
                    <mxGeometry relative="1" as="geometry">
                        <mxPoint x="430" y="1280" as="sourcePoint"/>
                    </mxGeometry>
                </mxCell>
                <mxCell id="QCd1m7O_G2qFwtDelTw3-83" style="edgeStyle=orthogonalEdgeStyle;rounded=0;orthogonalLoop=1;jettySize=auto;html=1;exitX=0.5;exitY=1;exitDx=0;exitDy=0;endArrow=classic;endFill=1;fontColor=#333333;" parent="1" source="QCd1m7O_G2qFwtDelTw3-81" edge="1">
                    <mxGeometry relative="1" as="geometry">
                        <mxPoint x="610" y="1560" as="targetPoint"/>
                        <Array as="points">
                            <mxPoint x="590" y="1450"/>
                            <mxPoint x="480" y="1450"/>
                        </Array>
                    </mxGeometry>
                </mxCell>
                <mxCell id="QCd1m7O_G2qFwtDelTw3-81" value="Type de message" style="rhombus;whiteSpace=wrap;html=1;fillColor=#fff2cc;strokeColor=#d6b656;fontColor=#333333;" parent="1" vertex="1">
                    <mxGeometry x="530" y="1340" width="120" height="80" as="geometry"/>
                </mxCell>
                <mxCell id="QCd1m7O_G2qFwtDelTw3-84" value="" style="endArrow=classic;html=1;rounded=0;entryX=0;entryY=0.5;entryDx=0;entryDy=0;fontColor=#333333;" parent="1" target="QCd1m7O_G2qFwtDelTw3-86" edge="1">
                    <mxGeometry relative="1" as="geometry">
                        <mxPoint x="480" y="1480" as="sourcePoint"/>
                        <mxPoint x="580" y="1480" as="targetPoint"/>
                    </mxGeometry>
                </mxCell>
                <mxCell id="QCd1m7O_G2qFwtDelTw3-85" value="Màj du monde" style="edgeLabel;resizable=0;html=1;align=center;verticalAlign=middle;fontColor=#999999;labelBackgroundColor=none;" parent="QCd1m7O_G2qFwtDelTw3-84" connectable="0" vertex="1">
                    <mxGeometry relative="1" as="geometry"/>
                </mxCell>
                <mxCell id="QCd1m7O_G2qFwtDelTw3-86" value="Mise à jour du terrain" style="rounded=0;whiteSpace=wrap;html=1;fillColor=#d5e8d4;strokeColor=#82b366;fontColor=#333333;" parent="1" vertex="1">
                    <mxGeometry x="610" y="1450" width="120" height="60" as="geometry"/>
                </mxCell>
                <mxCell id="QCd1m7O_G2qFwtDelTw3-87" value="Mise à jour des positions des joueurs" style="rounded=0;whiteSpace=wrap;html=1;fillColor=#d5e8d4;strokeColor=#82b366;fontColor=#333333;" parent="1" vertex="1">
                    <mxGeometry x="610" y="1530" width="120" height="60" as="geometry"/>
                </mxCell>
                <mxCell id="QCd1m7O_G2qFwtDelTw3-90" value="Màj de joueur" style="text;strokeColor=none;fillColor=none;align=left;verticalAlign=middle;spacingLeft=4;spacingRight=4;overflow=hidden;points=[[0,0.5],[1,0.5]];portConstraint=eastwest;rotatable=0;labelBackgroundColor=none;fontColor=#999999;" parent="1" vertex="1">
                    <mxGeometry x="500" y="1545" width="90" height="30" as="geometry"/>
                </mxCell>
                <mxCell id="QCd1m7O_G2qFwtDelTw3-96" style="edgeStyle=orthogonalEdgeStyle;rounded=0;orthogonalLoop=1;jettySize=auto;html=1;entryX=0;entryY=0.5;entryDx=0;entryDy=0;endArrow=classic;endFill=1;fontColor=#333333;" parent="1" target="QCd1m7O_G2qFwtDelTw3-95" edge="1">
                    <mxGeometry relative="1" as="geometry">
                        <mxPoint x="430" y="1650" as="sourcePoint"/>
                    </mxGeometry>
                </mxCell>
                <mxCell id="QCd1m7O_G2qFwtDelTw3-92" value="Connexion au nouveau lobby" style="rounded=0;whiteSpace=wrap;html=1;labelBackgroundColor=none;fillColor=#e1d5e7;strokeColor=#9673a6;fontColor=#333333;" parent="1" vertex="1">
                    <mxGeometry x="310" y="1780" width="120" height="60" as="geometry"/>
                </mxCell>
                <mxCell id="QCd1m7O_G2qFwtDelTw3-93" value="Déconnexion du lobby" style="rounded=0;whiteSpace=wrap;html=1;labelBackgroundColor=none;fillColor=#e1d5e7;strokeColor=#9673a6;fontColor=#333333;" parent="1" vertex="1">
                    <mxGeometry x="310" y="1700" width="120" height="60" as="geometry"/>
                </mxCell>
                <mxCell id="QCd1m7O_G2qFwtDelTw3-97" style="edgeStyle=orthogonalEdgeStyle;rounded=0;orthogonalLoop=1;jettySize=auto;html=1;endArrow=classic;endFill=1;entryX=1;entryY=0.5;entryDx=0;entryDy=0;fontColor=#333333;" parent="1" source="QCd1m7O_G2qFwtDelTw3-95" target="QCd1m7O_G2qFwtDelTw3-93" edge="1">
                    <mxGeometry relative="1" as="geometry">
                        <mxPoint x="590" y="1730" as="targetPoint"/>
                        <Array as="points">
                            <mxPoint x="590" y="1730"/>
                        </Array>
                    </mxGeometry>
                </mxCell>
                <mxCell id="QCd1m7O_G2qFwtDelTw3-99" style="edgeStyle=orthogonalEdgeStyle;rounded=0;orthogonalLoop=1;jettySize=auto;html=1;endArrow=classic;endFill=1;entryX=1;entryY=0.5;entryDx=0;entryDy=0;fontColor=#333333;" parent="1" source="QCd1m7O_G2qFwtDelTw3-95" target="QCd1m7O_G2qFwtDelTw3-92" edge="1">
                    <mxGeometry relative="1" as="geometry">
                        <mxPoint x="590" y="1810" as="targetPoint"/>
                        <Array as="points">
                            <mxPoint x="590" y="1810"/>
                        </Array>
                    </mxGeometry>
                </mxCell>
                <mxCell id="QCd1m7O_G2qFwtDelTw3-95" value="Déconnexion de l'ancien lobby et connexion au nouveau" style="rounded=0;whiteSpace=wrap;html=1;labelBackgroundColor=none;fillColor=#d5e8d4;strokeColor=#82b366;fontColor=#333333;" parent="1" vertex="1">
                    <mxGeometry x="530" y="1620" width="120" height="60" as="geometry"/>
                </mxCell>
                <mxCell id="kIeUtj9nH9YkvTLyxv19-4" style="edgeStyle=orthogonalEdgeStyle;rounded=0;orthogonalLoop=1;jettySize=auto;html=1;entryX=0;entryY=0.5;entryDx=0;entryDy=0;fontColor=#333333;" parent="1" target="kIeUtj9nH9YkvTLyxv19-1" edge="1">
                    <mxGeometry relative="1" as="geometry">
                        <mxPoint x="430" y="1910" as="sourcePoint"/>
                    </mxGeometry>
                </mxCell>
                <mxCell id="kIeUtj9nH9YkvTLyxv19-5" style="edgeStyle=orthogonalEdgeStyle;rounded=0;orthogonalLoop=1;jettySize=auto;html=1;entryX=0.5;entryY=0;entryDx=0;entryDy=0;fontColor=#333333;" parent="1" source="kIeUtj9nH9YkvTLyxv19-1" target="kIeUtj9nH9YkvTLyxv19-2" edge="1">
                    <mxGeometry relative="1" as="geometry"/>
                </mxCell>
                <mxCell id="kIeUtj9nH9YkvTLyxv19-6" style="edgeStyle=orthogonalEdgeStyle;rounded=0;orthogonalLoop=1;jettySize=auto;html=1;exitX=0.25;exitY=1;exitDx=0;exitDy=0;entryX=1;entryY=0;entryDx=0;entryDy=0;fontColor=#333333;" parent="1" source="kIeUtj9nH9YkvTLyxv19-1" target="kIeUtj9nH9YkvTLyxv19-3" edge="1">
                    <mxGeometry relative="1" as="geometry"/>
                </mxCell>
                <mxCell id="kIeUtj9nH9YkvTLyxv19-1" value="Mise à jour de l'utilisateur dans le client" style="rounded=0;whiteSpace=wrap;html=1;fillColor=#d5e8d4;strokeColor=#82b366;fontColor=#333333;" parent="1" vertex="1">
                    <mxGeometry x="530" y="1880" width="120" height="60" as="geometry"/>
                </mxCell>
                <mxCell id="kIeUtj9nH9YkvTLyxv19-2" value="Mise à jour des couleurs de utilisateurs" style="rounded=0;whiteSpace=wrap;html=1;fillColor=#d5e8d4;strokeColor=#82b366;fontColor=#333333;" parent="1" vertex="1">
                    <mxGeometry x="530" y="1970" width="120" height="60" as="geometry"/>
                </mxCell>
                <mxCell id="kIeUtj9nH9YkvTLyxv19-3" value="Mise à jour du statut d'activité" style="rounded=0;whiteSpace=wrap;html=1;fillColor=#e1d5e7;strokeColor=#9673a6;fontColor=#333333;" parent="1" vertex="1">
                    <mxGeometry x="310" y="1970" width="120" height="60" as="geometry"/>
                </mxCell>
                <mxCell id="kIeUtj9nH9YkvTLyxv19-11" style="edgeStyle=orthogonalEdgeStyle;rounded=0;orthogonalLoop=1;jettySize=auto;html=1;entryX=0;entryY=0.5;entryDx=0;entryDy=0;fontColor=#333333;" parent="1" target="kIeUtj9nH9YkvTLyxv19-8" edge="1">
                    <mxGeometry relative="1" as="geometry">
                        <mxPoint x="430" y="2090" as="sourcePoint"/>
                    </mxGeometry>
                </mxCell>
                <mxCell id="kIeUtj9nH9YkvTLyxv19-12" style="edgeStyle=orthogonalEdgeStyle;rounded=0;orthogonalLoop=1;jettySize=auto;html=1;exitX=0.5;exitY=1;exitDx=0;exitDy=0;entryX=0.5;entryY=0;entryDx=0;entryDy=0;fontColor=#333333;" parent="1" source="kIeUtj9nH9YkvTLyxv19-8" target="kIeUtj9nH9YkvTLyxv19-9" edge="1">
                    <mxGeometry relative="1" as="geometry"/>
                </mxCell>
                <mxCell id="kIeUtj9nH9YkvTLyxv19-13" style="edgeStyle=orthogonalEdgeStyle;rounded=0;orthogonalLoop=1;jettySize=auto;html=1;exitX=0.25;exitY=1;exitDx=0;exitDy=0;entryX=1;entryY=0;entryDx=0;entryDy=0;fontColor=#333333;" parent="1" source="kIeUtj9nH9YkvTLyxv19-8" target="kIeUtj9nH9YkvTLyxv19-10" edge="1">
                    <mxGeometry relative="1" as="geometry"/>
                </mxCell>
                <mxCell id="kIeUtj9nH9YkvTLyxv19-8" value="Suppression du joueur dans le client" style="rounded=0;whiteSpace=wrap;html=1;fillColor=#d5e8d4;strokeColor=#82b366;fontColor=#333333;" parent="1" vertex="1">
                    <mxGeometry x="530" y="2060" width="120" height="60" as="geometry"/>
                </mxCell>
                <mxCell id="kIeUtj9nH9YkvTLyxv19-9" value="Mise à jour des couleurs des joueurs" style="rounded=0;whiteSpace=wrap;html=1;fillColor=#d5e8d4;strokeColor=#82b366;fontColor=#333333;" parent="1" vertex="1">
                    <mxGeometry x="530" y="2150" width="120" height="60" as="geometry"/>
                </mxCell>
                <mxCell id="kIeUtj9nH9YkvTLyxv19-10" value="Mise à jour du statut d'activité" style="rounded=0;whiteSpace=wrap;html=1;fillColor=#e1d5e7;strokeColor=#9673a6;fontColor=#333333;" parent="1" vertex="1">
                    <mxGeometry x="310" y="2150" width="120" height="60" as="geometry"/>
                </mxCell>
                <mxCell id="kIeUtj9nH9YkvTLyxv19-14" value="&lt;span&gt;Mise à jour de la route de la connexion aux serveurs&lt;/span&gt;" style="ellipse;whiteSpace=wrap;html=1;rounded=1;fillColor=#dae8fc;strokeColor=#6c8ebf;fontColor=#333333;" parent="1" vertex="1">
                    <mxGeometry x="320" y="780" width="120" height="80" as="geometry"/>
                </mxCell>
                <mxCell id="kIeUtj9nH9YkvTLyxv19-15" value="&lt;span&gt;Connection d'un membre au lobby&lt;/span&gt;" style="ellipse;whiteSpace=wrap;html=1;rounded=1;fillColor=#dae8fc;strokeColor=#6c8ebf;fontColor=#333333;" parent="1" vertex="1">
                    <mxGeometry x="320" y="1070" width="120" height="80" as="geometry"/>
                </mxCell>
                <mxCell id="kIeUtj9nH9YkvTLyxv19-16" value="&lt;span&gt;Réception d'un message&lt;/span&gt;" style="ellipse;whiteSpace=wrap;html=1;rounded=1;fillColor=#dae8fc;strokeColor=#6c8ebf;fontColor=#333333;" parent="1" vertex="1">
                    <mxGeometry x="310" y="1240" width="120" height="80" as="geometry"/>
                </mxCell>
                <mxCell id="kIeUtj9nH9YkvTLyxv19-17" value="&lt;span style=&quot;&quot;&gt;Le joueur a cliqué sur le bouton Rejoindre dans Discord&lt;/span&gt;" style="ellipse;whiteSpace=wrap;html=1;rounded=1;fillColor=#dae8fc;strokeColor=#6c8ebf;labelBackgroundColor=none;fontColor=#333333;" parent="1" vertex="1">
                    <mxGeometry x="310" y="1600" width="120" height="80" as="geometry"/>
                </mxCell>
                <mxCell id="kIeUtj9nH9YkvTLyxv19-18" value="&lt;span style=&quot;&quot;&gt;Mise à jour des métadonnées d'un membre&lt;/span&gt;" style="ellipse;whiteSpace=wrap;html=1;rounded=1;fillColor=#dae8fc;strokeColor=#6c8ebf;labelBackgroundColor=none;fontColor=#333333;" parent="1" vertex="1">
                    <mxGeometry x="310" y="1870" width="120" height="80" as="geometry"/>
                </mxCell>
                <mxCell id="kIeUtj9nH9YkvTLyxv19-19" value="&lt;span&gt;Déconnexion d'un membre du lobby&lt;/span&gt;" style="ellipse;whiteSpace=wrap;html=1;rounded=1;fillColor=#dae8fc;strokeColor=#6c8ebf;fontColor=#333333;" parent="1" vertex="1">
                    <mxGeometry x="310" y="2050" width="120" height="80" as="geometry"/>
                </mxCell>
                <mxCell id="kIeUtj9nH9YkvTLyxv19-20" value="Discord lancé ?" style="rhombus;whiteSpace=wrap;html=1;rounded=1;arcSize=3;fillColor=#fff2cc;strokeColor=#d6b656;fontColor=#333333;" parent="1" vertex="1">
                    <mxGeometry x="320" y="140" width="120" height="60" as="geometry"/>
                </mxCell>
                <mxCell id="kIeUtj9nH9YkvTLyxv19-24" value="" style="endArrow=classic;html=1;rounded=0;entryX=0.5;entryY=0;entryDx=0;entryDy=0;fontColor=#333333;" parent="1" target="QCd1m7O_G2qFwtDelTw3-41" edge="1">
                    <mxGeometry relative="1" as="geometry">
                        <mxPoint x="380" y="200" as="sourcePoint"/>
                        <mxPoint x="480" y="200" as="targetPoint"/>
                    </mxGeometry>
                </mxCell>
                <mxCell id="kIeUtj9nH9YkvTLyxv19-25" value="Oui" style="edgeLabel;resizable=0;html=1;align=center;verticalAlign=middle;rounded=1;fontColor=#999999;labelBackgroundColor=none;" parent="kIeUtj9nH9YkvTLyxv19-24" connectable="0" vertex="1">
                    <mxGeometry relative="1" as="geometry"/>
                </mxCell>
                <mxCell id="kIeUtj9nH9YkvTLyxv19-26" value="" style="endArrow=classic;html=1;rounded=0;exitX=0;exitY=0.5;exitDx=0;exitDy=0;edgeStyle=orthogonalEdgeStyle;fontColor=#333333;" parent="1" source="kIeUtj9nH9YkvTLyxv19-20" edge="1">
                    <mxGeometry relative="1" as="geometry">
                        <mxPoint x="190" y="180" as="sourcePoint"/>
                        <mxPoint x="230" y="240" as="targetPoint"/>
                    </mxGeometry>
                </mxCell>
                <mxCell id="kIeUtj9nH9YkvTLyxv19-27" value="Non" style="edgeLabel;resizable=0;html=1;align=center;verticalAlign=middle;rounded=1;fontColor=#999999;labelBackgroundColor=none;" parent="kIeUtj9nH9YkvTLyxv19-26" connectable="0" vertex="1">
                    <mxGeometry relative="1" as="geometry"/>
                </mxCell>
                <mxCell id="kIeUtj9nH9YkvTLyxv19-28" value="Arrêt du jeu et lancement de Discord" style="rounded=0;whiteSpace=wrap;html=1;fillColor=#f8cecc;strokeColor=#b85450;fontColor=#333333;" parent="1" vertex="1">
                    <mxGeometry x="170" y="240" width="120" height="60" as="geometry"/>
                </mxCell>
                <mxCell id="kIeUtj9nH9YkvTLyxv19-29" value="&lt;span&gt;Discord a répondu ?&lt;/span&gt;" style="rhombus;whiteSpace=wrap;html=1;rounded=1;labelBackgroundColor=none;arcSize=0;fillColor=#fff2cc;strokeColor=#d6b656;fontColor=#333333;" parent="1" vertex="1">
                    <mxGeometry x="525" y="500" width="150" height="40" as="geometry"/>
                </mxCell>
            </root>
        </mxGraphModel>
    </diagram>
    <diagram id="8CwvdJuMK3NBWx0tMfdm" name="Rendering">
        <mxGraphModel dx="1123" dy="860" grid="1" gridSize="10" guides="1" tooltips="1" connect="1" arrows="1" fold="1" page="1" pageScale="1" pageWidth="827" pageHeight="1169" math="0" shadow="0">
            <root>
                <mxCell id="l7-qOM-S1BJ6W1S9vOFl-0"/>
                <mxCell id="l7-qOM-S1BJ6W1S9vOFl-1" parent="l7-qOM-S1BJ6W1S9vOFl-0"/>
                <mxCell id="l7-qOM-S1BJ6W1S9vOFl-2" style="edgeStyle=orthogonalEdgeStyle;rounded=0;orthogonalLoop=1;jettySize=auto;html=1;fontColor=#333333;" edge="1" parent="l7-qOM-S1BJ6W1S9vOFl-1" target="l7-qOM-S1BJ6W1S9vOFl-4">
                    <mxGeometry relative="1" as="geometry">
                        <mxPoint x="330" y="100" as="sourcePoint"/>
                    </mxGeometry>
                </mxCell>
                <mxCell id="l7-qOM-S1BJ6W1S9vOFl-3" style="edgeStyle=orthogonalEdgeStyle;rounded=0;orthogonalLoop=1;jettySize=auto;html=1;entryX=0.5;entryY=0;entryDx=0;entryDy=0;fontColor=#333333;" edge="1" parent="l7-qOM-S1BJ6W1S9vOFl-1" source="l7-qOM-S1BJ6W1S9vOFl-4" target="l7-qOM-S1BJ6W1S9vOFl-9">
                    <mxGeometry relative="1" as="geometry"/>
                </mxCell>
                <mxCell id="l7-qOM-S1BJ6W1S9vOFl-4" value="Actualisation de la connexion avec discord (mise à jour serveur → client)" style="rounded=0;whiteSpace=wrap;html=1;fillColor=#e1d5e7;strokeColor=#9673a6;fontColor=#333333;" vertex="1" parent="l7-qOM-S1BJ6W1S9vOFl-1">
                    <mxGeometry x="270" y="140" width="120" height="60" as="geometry"/>
                </mxCell>
                <mxCell id="l7-qOM-S1BJ6W1S9vOFl-5" style="edgeStyle=orthogonalEdgeStyle;rounded=0;orthogonalLoop=1;jettySize=auto;html=1;entryX=1;entryY=0.5;entryDx=0;entryDy=0;fontColor=#333333;" edge="1" parent="l7-qOM-S1BJ6W1S9vOFl-1" source="l7-qOM-S1BJ6W1S9vOFl-9" target="l7-qOM-S1BJ6W1S9vOFl-11">
                    <mxGeometry relative="1" as="geometry"/>
                </mxCell>
                <mxCell id="l7-qOM-S1BJ6W1S9vOFl-6" value="Oui" style="edgeLabel;html=1;align=center;verticalAlign=middle;resizable=0;points=[];fontColor=#999999;labelBackgroundColor=none;" vertex="1" connectable="0" parent="l7-qOM-S1BJ6W1S9vOFl-5">
                    <mxGeometry x="-0.8466" y="3" relative="1" as="geometry">
                        <mxPoint x="-15" y="-3" as="offset"/>
                    </mxGeometry>
                </mxCell>
                <mxCell id="l7-qOM-S1BJ6W1S9vOFl-7" style="edgeStyle=orthogonalEdgeStyle;rounded=0;orthogonalLoop=1;jettySize=auto;html=1;entryX=0.5;entryY=0;entryDx=0;entryDy=0;fontColor=#333333;" edge="1" parent="l7-qOM-S1BJ6W1S9vOFl-1" source="l7-qOM-S1BJ6W1S9vOFl-9" target="l7-qOM-S1BJ6W1S9vOFl-13">
                    <mxGeometry relative="1" as="geometry">
                        <Array as="points">
                            <mxPoint x="330" y="330"/>
                            <mxPoint x="330" y="330"/>
                        </Array>
                    </mxGeometry>
                </mxCell>
                <mxCell id="l7-qOM-S1BJ6W1S9vOFl-8" value="Non" style="edgeLabel;html=1;align=center;verticalAlign=middle;resizable=0;points=[];fontColor=#999999;labelBackgroundColor=none;" vertex="1" connectable="0" parent="l7-qOM-S1BJ6W1S9vOFl-7">
                    <mxGeometry x="0.304" y="-3" relative="1" as="geometry">
                        <mxPoint x="3" y="-10" as="offset"/>
                    </mxGeometry>
                </mxCell>
                <mxCell id="l7-qOM-S1BJ6W1S9vOFl-9" value="Fenêtre fermée ?" style="rhombus;whiteSpace=wrap;html=1;fillColor=#fff2cc;strokeColor=#d6b656;fontColor=#333333;" vertex="1" parent="l7-qOM-S1BJ6W1S9vOFl-1">
                    <mxGeometry x="270" y="240" width="120" height="70" as="geometry"/>
                </mxCell>
                <mxCell id="l7-qOM-S1BJ6W1S9vOFl-10" value="Boucle principale" style="ellipse;whiteSpace=wrap;html=1;fillColor=#dae8fc;strokeColor=#6c8ebf;fontColor=#333333;" vertex="1" parent="l7-qOM-S1BJ6W1S9vOFl-1">
                    <mxGeometry x="270" y="40" width="120" height="60" as="geometry"/>
                </mxCell>
                <mxCell id="l7-qOM-S1BJ6W1S9vOFl-11" value="Fin" style="rounded=0;whiteSpace=wrap;html=1;fillColor=#f8cecc;strokeColor=#b85450;fontColor=#333333;" vertex="1" parent="l7-qOM-S1BJ6W1S9vOFl-1">
                    <mxGeometry x="90" y="245" width="120" height="60" as="geometry"/>
                </mxCell>
                <mxCell id="l7-qOM-S1BJ6W1S9vOFl-12" style="edgeStyle=orthogonalEdgeStyle;rounded=0;orthogonalLoop=1;jettySize=auto;html=1;entryX=0.5;entryY=0;entryDx=0;entryDy=0;fontColor=#333333;" edge="1" parent="l7-qOM-S1BJ6W1S9vOFl-1" source="l7-qOM-S1BJ6W1S9vOFl-13" target="l7-qOM-S1BJ6W1S9vOFl-15">
                    <mxGeometry relative="1" as="geometry"/>
                </mxCell>
                <mxCell id="l7-qOM-S1BJ6W1S9vOFl-13" value="Actualisation des touches" style="rounded=0;whiteSpace=wrap;html=1;fillColor=#d5e8d4;strokeColor=#82b366;fontColor=#333333;" vertex="1" parent="l7-qOM-S1BJ6W1S9vOFl-1">
                    <mxGeometry x="270" y="340" width="120" height="60" as="geometry"/>
                </mxCell>
                <mxCell id="l7-qOM-S1BJ6W1S9vOFl-14" style="edgeStyle=orthogonalEdgeStyle;rounded=0;orthogonalLoop=1;jettySize=auto;html=1;entryX=0.5;entryY=0;entryDx=0;entryDy=0;fontColor=#333333;" edge="1" parent="l7-qOM-S1BJ6W1S9vOFl-1" source="l7-qOM-S1BJ6W1S9vOFl-15" target="l7-qOM-S1BJ6W1S9vOFl-17">
                    <mxGeometry relative="1" as="geometry"/>
                </mxCell>
                <mxCell id="l7-qOM-S1BJ6W1S9vOFl-15" value="Actualisation de la connexion avec discord (mise à jour client → serveur)" style="rounded=0;whiteSpace=wrap;html=1;fillColor=#e1d5e7;strokeColor=#9673a6;fontColor=#333333;" vertex="1" parent="l7-qOM-S1BJ6W1S9vOFl-1">
                    <mxGeometry x="270" y="440" width="120" height="60" as="geometry"/>
                </mxCell>
                <mxCell id="l7-qOM-S1BJ6W1S9vOFl-16" style="edgeStyle=orthogonalEdgeStyle;rounded=0;orthogonalLoop=1;jettySize=auto;html=1;entryX=0;entryY=0.5;entryDx=0;entryDy=0;fontColor=#333333;" edge="1" parent="l7-qOM-S1BJ6W1S9vOFl-1" source="l7-qOM-S1BJ6W1S9vOFl-17" target="l7-qOM-S1BJ6W1S9vOFl-19">
                    <mxGeometry relative="1" as="geometry"/>
                </mxCell>
                <mxCell id="l7-qOM-S1BJ6W1S9vOFl-17" value="Préparation de l'affichage (suppression de l'écran)" style="rounded=0;whiteSpace=wrap;html=1;fillColor=#d5e8d4;strokeColor=#82b366;fontColor=#333333;" vertex="1" parent="l7-qOM-S1BJ6W1S9vOFl-1">
                    <mxGeometry x="270" y="540" width="120" height="60" as="geometry"/>
                </mxCell>
                <mxCell id="l7-qOM-S1BJ6W1S9vOFl-18" value="" style="edgeStyle=orthogonalEdgeStyle;rounded=0;orthogonalLoop=1;jettySize=auto;html=1;fontColor=#333333;" edge="1" parent="l7-qOM-S1BJ6W1S9vOFl-1" source="l7-qOM-S1BJ6W1S9vOFl-19" target="l7-qOM-S1BJ6W1S9vOFl-24">
                    <mxGeometry relative="1" as="geometry"/>
                </mxCell>
                <mxCell id="l7-qOM-S1BJ6W1S9vOFl-19" value="Affichage des tuiles" style="rounded=0;whiteSpace=wrap;html=1;fillColor=#d5e8d4;strokeColor=#82b366;fontColor=#333333;" vertex="1" parent="l7-qOM-S1BJ6W1S9vOFl-1">
                    <mxGeometry x="450" y="540" width="120" height="60" as="geometry"/>
                </mxCell>
                <mxCell id="l7-qOM-S1BJ6W1S9vOFl-20" value="" style="edgeStyle=orthogonalEdgeStyle;rounded=0;orthogonalLoop=1;jettySize=auto;html=1;fontColor=#333333;" edge="1" parent="l7-qOM-S1BJ6W1S9vOFl-1" source="l7-qOM-S1BJ6W1S9vOFl-24" target="l7-qOM-S1BJ6W1S9vOFl-26">
                    <mxGeometry relative="1" as="geometry"/>
                </mxCell>
                <mxCell id="l7-qOM-S1BJ6W1S9vOFl-21" style="edgeStyle=orthogonalEdgeStyle;rounded=0;orthogonalLoop=1;jettySize=auto;html=1;exitX=1;exitY=0.5;exitDx=0;exitDy=0;fontColor=#333333;" edge="1" parent="l7-qOM-S1BJ6W1S9vOFl-1" source="l7-qOM-S1BJ6W1S9vOFl-24">
                    <mxGeometry relative="1" as="geometry">
                        <mxPoint x="620" y="490" as="sourcePoint"/>
                        <mxPoint x="510" y="310" as="targetPoint"/>
                        <Array as="points">
                            <mxPoint x="630" y="470"/>
                            <mxPoint x="630" y="310"/>
                        </Array>
                    </mxGeometry>
                </mxCell>
                <mxCell id="l7-qOM-S1BJ6W1S9vOFl-22" value="Non" style="edgeLabel;html=1;align=center;verticalAlign=middle;resizable=0;points=[];fontColor=#999999;labelBackgroundColor=none;" vertex="1" connectable="0" parent="l7-qOM-S1BJ6W1S9vOFl-21">
                    <mxGeometry x="0.6063" y="3" relative="1" as="geometry">
                        <mxPoint x="13" y="157" as="offset"/>
                    </mxGeometry>
                </mxCell>
                <mxCell id="l7-qOM-S1BJ6W1S9vOFl-23" value="Oui" style="edgeLabel;html=1;align=center;verticalAlign=middle;resizable=0;points=[];fontColor=#999999;labelBackgroundColor=none;" vertex="1" connectable="0" parent="l7-qOM-S1BJ6W1S9vOFl-21">
                    <mxGeometry x="-0.0984" y="-1" relative="1" as="geometry">
                        <mxPoint x="-121" y="46" as="offset"/>
                    </mxGeometry>
                </mxCell>
                <mxCell id="l7-qOM-S1BJ6W1S9vOFl-24" value="Mode débug&lt;br&gt;activé ?" style="rhombus;whiteSpace=wrap;html=1;rounded=0;fillColor=#fff2cc;strokeColor=#d6b656;fontColor=#333333;" vertex="1" parent="l7-qOM-S1BJ6W1S9vOFl-1">
                    <mxGeometry x="450" y="440" width="120" height="60" as="geometry"/>
                </mxCell>
                <mxCell id="l7-qOM-S1BJ6W1S9vOFl-25" style="edgeStyle=orthogonalEdgeStyle;rounded=0;orthogonalLoop=1;jettySize=auto;html=1;entryX=0.5;entryY=1;entryDx=0;entryDy=0;fontColor=#333333;" edge="1" parent="l7-qOM-S1BJ6W1S9vOFl-1" source="l7-qOM-S1BJ6W1S9vOFl-26" target="l7-qOM-S1BJ6W1S9vOFl-28">
                    <mxGeometry relative="1" as="geometry"/>
                </mxCell>
                <mxCell id="l7-qOM-S1BJ6W1S9vOFl-26" value="Affichage de l'écran de débuggage" style="whiteSpace=wrap;html=1;rounded=0;fillColor=#d5e8d4;strokeColor=#82b366;fontColor=#333333;" vertex="1" parent="l7-qOM-S1BJ6W1S9vOFl-1">
                    <mxGeometry x="450" y="340" width="120" height="60" as="geometry"/>
                </mxCell>
                <mxCell id="l7-qOM-S1BJ6W1S9vOFl-27" style="edgeStyle=orthogonalEdgeStyle;rounded=0;orthogonalLoop=1;jettySize=auto;html=1;entryX=0.5;entryY=1;entryDx=0;entryDy=0;fontColor=#333333;" edge="1" parent="l7-qOM-S1BJ6W1S9vOFl-1" source="l7-qOM-S1BJ6W1S9vOFl-28" target="l7-qOM-S1BJ6W1S9vOFl-30">
                    <mxGeometry relative="1" as="geometry">
                        <mxPoint x="510" y="205" as="targetPoint"/>
                    </mxGeometry>
                </mxCell>
                <mxCell id="l7-qOM-S1BJ6W1S9vOFl-28" value="Rafraîchissement de l'écran" style="rounded=0;whiteSpace=wrap;html=1;fillColor=#d5e8d4;strokeColor=#82b366;fontColor=#333333;" vertex="1" parent="l7-qOM-S1BJ6W1S9vOFl-1">
                    <mxGeometry x="450" y="240" width="120" height="60" as="geometry"/>
                </mxCell>
                <mxCell id="l7-qOM-S1BJ6W1S9vOFl-29" style="edgeStyle=orthogonalEdgeStyle;rounded=0;orthogonalLoop=1;jettySize=auto;html=1;fontColor=#333333;" edge="1" parent="l7-qOM-S1BJ6W1S9vOFl-1" source="l7-qOM-S1BJ6W1S9vOFl-30">
                    <mxGeometry relative="1" as="geometry">
                        <mxPoint x="330" y="120" as="targetPoint"/>
                        <Array as="points">
                            <mxPoint x="530" y="120"/>
                        </Array>
                    </mxGeometry>
                </mxCell>
                <mxCell id="l7-qOM-S1BJ6W1S9vOFl-30" value="Attente de suffisamment de temps pour ne pas excéder les FPS" style="rounded=0;whiteSpace=wrap;html=1;fillColor=#d5e8d4;strokeColor=#82b366;fontColor=#333333;" vertex="1" parent="l7-qOM-S1BJ6W1S9vOFl-1">
                    <mxGeometry x="450" y="140" width="120" height="60" as="geometry"/>
                </mxCell>
            </root>
        </mxGraphModel>
    </diagram>
</mxfile>